# xmcd
#
# Track frame offsets:
#	182
#	11787
#	26830
#	41530
#	56977
#	73945
#	86250
#	99655
#	111737
#	124547
#
# Disc length: 1834 seconds
#
# Revision: 1
# Processed by: cddbd v1.5.2PL0 Copyright (c) Steve Scherf et al.
# Submitted via: EZCDAudioConverter 6.0.7.1
#
DISCID=8e07280a
DTITLE=George Strait - Holding My Own
DYEAR=1992
DGENRE=Country
TTITLE0=You're Right I'm Wrong
TTITLE1=Holding My Own
TTITLE2=Gone As A Girl Can Get
TTITLE3=So Much Like My Dad
TTITLE4=Trains Make Me Lonesome
TTITLE5=All Of Me (Loves All Of You)
TTITLE6=Wonderland Of Love
TTITLE7=Faults And All
TTITLE8=It's Alright With Me
TTITLE9=Here We Go Again
EXTD=
EXTT0=
EXTT1=
EXTT2=
EXTT3=
EXTT4=
EXTT5=
EXTT6=
EXTT7=
EXTT8=
EXTT9=
PLAYORDER=
